<svg width="18" height="16" viewBox="0 0 18 16" fill="none" xmlns="http://www.w3.org/2000/svg">
<path d="M15.7999 2.16345C14.9114 1.28403 13.7377 0.751173 12.4908 0.661016C11.2439 0.570858 10.0058 0.929342 8.99995 1.67178C7.93966 0.883145 6.61994 0.52554 5.30655 0.670979C3.99315 0.816417 2.78364 1.4541 1.92159 2.4556C1.05953 3.45711 0.608963 4.74805 0.660612 6.06846C0.712261 7.38887 1.26229 8.64067 2.19994 9.57178L7.19994 14.6134C7.6687 15.0816 8.30411 15.3446 8.96661 15.3446C9.62911 15.3446 10.2645 15.0816 10.7333 14.6134L15.7333 9.57178C16.2257 9.09065 16.6182 8.51695 16.8882 7.88364C17.1582 7.25033 17.3004 6.56991 17.3066 5.88147C17.3128 5.19304 17.1829 4.51016 16.9243 3.8721C16.6658 3.23403 16.2836 2.65336 15.7999 2.16345ZM14.6249 8.38011L9.62495 13.3801C9.54748 13.4582 9.45531 13.5202 9.35376 13.5625C9.25221 13.6048 9.14329 13.6266 9.03328 13.6266C8.92327 13.6266 8.81435 13.6048 8.7128 13.5625C8.61125 13.5202 8.51908 13.4582 8.44161 13.3801L3.44161 8.38011C2.78808 7.71207 2.42212 6.81467 2.42212 5.88011C2.42212 4.94556 2.78808 4.04816 3.44161 3.38011C4.10757 2.7226 5.00576 2.35392 5.94161 2.35392C6.87747 2.35392 7.77565 2.7226 8.44161 3.38011C8.51908 3.45822 8.61125 3.52022 8.7128 3.56252C8.81435 3.60483 8.92327 3.62661 9.03328 3.62661C9.14329 3.62661 9.25221 3.60483 9.35376 3.56252C9.45531 3.52022 9.54748 3.45822 9.62495 3.38011C10.3089 2.83585 11.1693 2.56238 12.042 2.61186C12.9147 2.66133 13.7386 3.03029 14.3567 3.64837C14.9748 4.26644 15.3437 5.09039 15.3932 5.96308C15.4427 6.83577 15.1692 7.69614 14.6249 8.38011Z" fill="black"/>
</svg>
